<svg xmlns="http://www.w3.org/2000/svg" xmlns:xlink="http://www.w3.org/1999/xlink" version="1.1" width="389.8" height="231.2" viewBox="0 0 389.8 231.2">
<defs>
<clipPath id="clip_1">
<path transform="matrix(1,0,0,-1,-100,768.2)" d="M100 537H489.8V768.2H100Z" clip-rule="evenodd"/>
</clipPath>
<clipPath id="clip_2">
<path transform="matrix(1,0,0,-1,-100,768.2)" d="M0 0H595V842H0Z"/>
</clipPath>
<path id="font_3_55" d="M.40199 .31348H.17101C.17167 .32351 .17383 .33487 .17749 .34758 .18116 .3603 .1875 .37233 .1965 .3837 .20551 .39507 .2175 .4046 .2325 .41229 .2475 .41998 .26634 .42383 .289 .42383 .32367 .42383 .3495 .41446 .3665 .39574 .3835 .37701 .39533 .34959 .40199 .31348M.17101 .22363H.54401C.54667 .26371 .54333 .30212 .534 .33887 .52467 .37561 .5095 .40834 .48849 .43706 .4675 .46578 .44066 .48866 .40799 .50569 .37533 .52273 .337 .53125 .293 .53125 .25366 .53125 .21783 .52424 .1855 .51021 .15317 .49619 .12534 .47699 .10201 .45262 .07867 .42825 .06067 .39936 .048 .36597 .03534 .33258 .02901 .29652 .02901 .25778 .02901 .21772 .03517 .18099 .0475 .1476 .05984 .11421 .07734 .08549 .10001 .06145 .12267 .03741 .15033 .01888 .183 .00586 .21566-.00716 .25233-.01367 .293-.01367 .35166-.01367 .40166-.00035 .44299 .02629 .48433 .05293 .515 .09723 .535 .15918H.41C.40533 .14332 .39266 .12829 .37199 .11407 .35133 .09987 .32667 .09277 .298 .09277 .25801 .09277 .22734 .10309 .20599 .12373 .18466 .14438 .173 .17768 .17101 .22363Z"/>
<path id="font_3_63" d="M.058 .51701V0H.2V.29996C.2 .32529 .20366 .34578 .211 .36145 .21833 .37712 .22717 .38911 .2375 .39745 .24784 .40578 .2585 .41144 .2695 .41444 .2805 .41744 .28933 .41895 .29601 .41895 .31867 .41895 .33584 .41511 .3475 .40744 .35917 .39978 .3675 .38962 .3725 .37695 .3775 .36429 .38034 .35045 .381 .33545 .38167 .32045 .382 .30529 .382 .28996V0H.524V.28796C.524 .30397 .52517 .31979 .5275 .33545 .52984 .35111 .53451 .36511 .5415 .37744 .5485 .38978 .55817 .39978 .5705 .40744 .58283 .41511 .599 .41895 .619 .41895 .639 .41895 .65483 .41561 .66649 .40894 .67816 .40227 .68699 .39327 .69299 .38194 .69899 .37062 .70266 .35729 .70399 .34195 .70533 .32662 .70599 .31029 .70599 .29297V0H.84801V.34616C.84801 .37951 .84334 .40802 .834 .4317 .82467 .45538 .81167 .47456 .795 .48923 .77834 .50391 .75834 .51458 .735 .52124 .71167 .52791 .68635 .53125 .65901 .53125 .62301 .53125 .59184 .52256 .56551 .50517 .53917 .4878 .51834 .46775 .50301 .44502 .48901 .47711 .46851 .4995 .4415 .51219 .4145 .5249 .38467 .53125 .35201 .53125 .31801 .53125 .28784 .5239 .26151 .50919 .23517 .49449 .21267 .47377 .194 .44702H.192V.51701H.058Z"/>
<path id="font_3_62" d="M.058 .71387V0H.2V.71387H.058Z"/>
<path id="font_4_77" d="M.369 .36552H.43201C.43067 .39352 .42501 .41785 .41501 .43851 .40501 .45918 .3915 .47649 .3745 .49043 .3575 .50438 .33783 .51467 .31549 .5213 .29316 .52793 .269 .53125 .243 .53125 .22033 .53125 .1975 .52858 .1745 .52324 .1515 .51791 .13067 .50957 .112 .49823 .09333 .4869 .07817 .47189 .0665 .45322 .05483 .43455 .049 .41221 .049 .3862 .049 .3642 .05266 .34569 .06 .33069 .06733 .31568 .0775 .30301 .0905 .29266 .1035 .28233 .11867 .27366 .136 .26666 .15334 .25966 .17233 .25349 .19299 .24815L.27399 .23015C.28799 .22681 .30183 .22281 .31549 .21814 .32916 .21348 .34133 .20765 .35199 .20064 .36266 .19364 .37116 .18497 .37749 .17462 .38382 .16429 .38699 .15145 .38699 .13612 .38699 .11812 .38249 .10295 .37349 .09061 .3645 .07827 .353 .06809 .33899 .06009 .32499 .05209 .30982 .04643 .29349 .04309 .27716 .03975 .26133 .03809 .24599 .03809 .20399 .03809 .16883 .04892 .14049 .07059 .11216 .09225 .09666 .12443 .09399 .1671H.03101C.03634 .10376 .05784 .0578 .0955 .02921 .13317 .00062 .18234-.01367 .243-.01367 .267-.01367 .29134-.011 .31599-.00566 .34066-.00033 .36283 .0085 .38249 .02084 .40217 .03318 .41833 .04919 .431 .06886 .44366 .08854 .45 .11238 .45 .14038 .45 .16306 .44566 .18273 .437 .1994 .42833 .21608 .41716 .23009 .40349 .24142 .38983 .25277 .37416 .26194 .35649 .26894 .33883 .27593 .321 .28077 .30299 .28345L.21899 .30244C.20833 .30512 .19667 .30862 .18399 .31296 .17133 .31729 .15966 .32279 .14899 .32945 .13833 .33613 .1295 .34429 .1225 .35396 .1155 .36363 .112 .37547 .112 .38948 .112 .40615 .11567 .42016 .123 .43149 .13034 .44283 .14 .452 .15199 .459 .164 .46601 .17716 .47101 .1915 .47401 .20583 .47702 .22 .47852 .23401 .47852 .252 .47852 .269 .47635 .285 .47202 .30101 .46768 .31517 .46085 .3275 .45151 .33984 .44218 .34967 .43035 .35699 .41602 .36433 .40168 .36833 .38485 .369 .36552Z"/>
<path id="font_4_1" d="M0 0Z"/>
<path id="font_4_63" d="M.431 .29395H.097C.09967 .31735 .10516 .34026 .11349 .36266 .12184 .38506 .13301 .40478 .147 .42183 .161 .43889 .178 .4526 .198 .46297 .218 .47333 .241 .47852 .267 .47852 .29233 .47852 .31499 .47333 .33499 .46297 .355 .4526 .372 .43889 .386 .42183 .4 .40478 .41083 .38522 .41849 .36316 .42616 .34109 .43033 .31802 .431 .29395M.097 .24121H.494C.49534 .27721 .492 .31271 .48399 .34772 .476 .38273 .46283 .41374 .4445 .44073 .42617 .46774 .40234 .48958 .373 .50624 .34366 .52291 .30833 .53125 .267 .53125 .22633 .53125 .19116 .52342 .1615 .50775 .13184 .49209 .10767 .47142 .08899 .44576 .07032 .4201 .05649 .39094 .04749 .35828 .03849 .32561 .034 .29228 .034 .25829 .034 .22162 .0385 .18679 .0475 .15379 .0565 .1208 .07034 .09181 .089 .06682 .10767 .04182 .13184 .02216 .1615 .00783 .19116-.00651 .22633-.01367 .267-.01367 .33234-.01367 .38284 .00229 .4185 .03421 .45417 .06613 .47867 .11142 .492 .17009H.429C.419 .13009 .401 .09809 .375 .07408 .349 .05008 .313 .03809 .267 .03809 .237 .03809 .21133 .04442 .19 .0571 .16867 .06977 .151 .08578 .13699 .10512 .123 .12447 .11283 .14631 .10649 .17065 .10016 .19501 .097 .21853 .097 .24121Z"/>
<path id="font_4_66" d="M.05901 .71387V0H.12199V.30133C.12267 .32669 .12683 .35021 .13449 .3719 .14216 .39359 .15283 .41228 .16649 .42796 .18016 .44365 .19683 .45599 .21649 .465 .23616 .47401 .25866 .47852 .284 .47852 .30933 .47852 .33049 .47451 .34749 .46649 .36449 .45849 .37799 .44747 .38799 .43346 .39799 .41945 .405 .40293 .409 .38391 .41299 .36489 .41499 .34437 .41499 .32234V0H.478V.33215C.478 .36283 .475 .39051 .46899 .41519 .46299 .43987 .45266 .46071 .43799 .47772 .42333 .49473 .40383 .5079 .3795 .51724 .35517 .52658 .325 .53125 .289 .53125 .25233 .53125 .21866 .52172 .18799 .50265 .15733 .4836 .136 .45836 .12399 .42693H.12199V.71387H.05901Z"/>
<path id="font_4_59" d="M.054 .35852H.117C.11834 .40052 .13167 .43102 .157 .45001 .18234 .46901 .21501 .47852 .255 .47852 .27367 .47852 .29117 .47702 .3075 .47401 .32383 .47101 .33817 .46551 .35049 .4575 .36283 .4495 .3725 .43866 .3795 .42499 .3865 .41132 .39 .39381 .39 .37248 .39 .35847 .38816 .34713 .38449 .33846 .38083 .32979 .37566 .32295 .36899 .31795 .36233 .31295 .35399 .30945 .34399 .30745 .33399 .30545 .32233 .30378 .30901 .30244 .275 .29845 .2415 .29428 .2085 .28995 .1755 .28561 .14583 .27811 .11949 .26744 .09317 .25677 .072 .24126 .056 .22092 .04 .20057 .032 .17239 .032 .13638 .032 .11037 .0365 .08786 .0455 .06885 .0545 .04985 .06684 .03417 .0825 .02184 .09817 .00951 .1165 .00051 .1375-.00516 .1585-.01083 .181-.01367 .205-.01367 .23033-.01367 .25216-.01134 .27049-.00667 .28883-.00201 .30517 .00465 .3195 .01332 .33384 .02199 .34684 .03282 .35851 .04582 .37017 .05882 .38167 .07365 .39301 .09032H.395C.395 .07698 .39584 .06481 .39751 .05382 .39918 .04282 .40267 .03332 .408 .02531 .41334 .01732 .42083 .01115 .4305 .00682 .44017 .00249 .453 .00032 .46899 .00032 .47766 .00032 .48483 .00065 .49049 .00131 .49616 .00198 .50266 .00299 .50999 .00432V.05731C.504 .05465 .49734 .05331 .49001 .05331 .46534 .05331 .453 .06598 .453 .09131V.36528C.453 .39994 .44734 .4281 .436 .44975 .42467 .47142 .41 .48825 .392 .50024 .374 .51225 .35367 .52042 .33099 .52475 .30833 .52908 .28566 .53125 .263 .53125 .233 .53125 .20567 .52793 .181 .5213 .15633 .51467 .13483 .50438 .1165 .49043 .09817 .47649 .08367 .45851 .073 .43651 .06234 .41452 .056 .38852 .054 .35852M.39 .28209V.20009C.39 .17476 .38516 .15209 .37549 .1321 .36582 .1121 .35282 .09509 .33649 .08109 .32016 .06709 .30099 .05642 .27899 .04909 .257 .04175 .234 .03809 .21001 .03809 .19534 .03809 .181 .04042 .16699 .04509 .15299 .04976 .14066 .05659 .12999 .06558 .11933 .07458 .11083 .08525 .10449 .09758 .09816 .10992 .095 .12409 .095 .14009 .095 .16542 .1025 .18492 .11749 .19858 .1325 .21225 .15167 .22275 .175 .23009 .19834 .23742 .22417 .24292 .2525 .24658 .28083 .25025 .30833 .25443 .33501 .25909 .34367 .26043 .35367 .26276 .36501 .26608 .37634 .26942 .384 .27475 .388 .28209H.39Z"/>
<path id="font_4_70" d="M.061 .71387V0H.12399V.71387H.061Z"/>
<path id="font_4_83" d="M.002 .51562 .20799 .00214 .186-.0558C.18066-.06778 .17566-.07877 .17099-.08876 .16633-.09875 .16066-.10724 .15399-.11423 .14733-.12123 .1395-.12672 .13049-.13072 .1215-.13472 .11-.13672 .09599-.13672 .08867-.13672 .0815-.13622 .07449-.13522 .06749-.13423 .06033-.13306 .05299-.13173V-.18448C.05833-.18647 .0645-.18763 .0715-.18796 .0785-.18829 .08833-.18879 .101-.18945 .121-.18945 .1375-.18762 .1505-.18396 .1635-.1803 .17483-.17431 .18449-.16599 .19417-.15766 .203-.14634 .211-.13202 .219-.11771 .22767-.09957 .237-.07761L.461 .51562H.39799L.239 .07562 .069 .51562H.002Z"/>
<path id="font_4_72" d="M.05901 .51624V0H.12199V.30133C.12267 .32669 .12683 .35021 .13449 .3719 .14216 .39359 .15283 .41228 .16649 .42796 .18016 .44365 .19683 .45599 .21649 .465 .23616 .47401 .25866 .47852 .284 .47852 .30933 .47852 .33049 .47451 .34749 .46649 .36449 .45849 .37799 .44747 .38799 .43346 .39799 .41945 .405 .40293 .409 .38391 .41299 .36489 .41499 .34437 .41499 .32234V0H.478V.33215C.478 .36283 .475 .39051 .46899 .41519 .46299 .43987 .45266 .46071 .43799 .47772 .42333 .49473 .40383 .5079 .3795 .51724 .35517 .52658 .325 .53125 .289 .53125 .25233 .53125 .21866 .52174 .18799 .50273 .15733 .48373 .136 .45855 .12399 .4272H.12199V.51624H.05901Z"/>
<path id="font_4_67" d="M.061 .71387V.61287H.12399V.71387H.061M.061 .51601V0H.12399V.51601H.061Z"/>
<path id="font_4_73" d="M.278 .47852C.308 .47852 .33433 .47217 .35699 .45949 .37967 .44681 .3985 .43013 .4135 .40944 .4285 .38876 .43983 .36524 .44749 .33888 .45516 .31253 .459 .28566 .459 .2583 .459 .23094 .45516 .20408 .44749 .17772 .43983 .15136 .4285 .12784 .4135 .10715 .3985 .08647 .37967 .06978 .35699 .0571 .33433 .04442 .308 .03809 .278 .03809 .248 .03809 .22166 .04442 .19899 .0571 .17633 .06978 .15749 .08647 .14249 .10715 .12749 .12784 .11616 .15136 .10849 .17772 .10083 .20408 .097 .23094 .097 .2583 .097 .28566 .10083 .31253 .10849 .33888 .11616 .36524 .12749 .38876 .14249 .40944 .15749 .43013 .17633 .44681 .19899 .45949 .22166 .47217 .248 .47852 .278 .47852M.278 .53125C.23866 .53125 .20383 .52392 .17349 .50925 .14316 .49459 .11766 .47492 .09698 .45026 .07632 .4256 .06066 .39677 .04999 .36377 .03933 .33078 .034 .29562 .034 .25829 .034 .22096 .03933 .1858 .04999 .1528 .06066 .11981 .07632 .09098 .09698 .06631 .11766 .04166 .14316 .02216 .17349 .00783 .20383-.00651 .23866-.01367 .278-.01367 .31734-.01367 .35217-.00651 .38251 .00783 .41284 .02216 .43834 .04166 .459 .06631 .47967 .09098 .49534 .11981 .506 .1528 .51667 .1858 .522 .22096 .522 .25829 .522 .29562 .51667 .33078 .506 .36377 .49534 .39677 .47967 .4256 .459 .45026 .43834 .47492 .41284 .49459 .38251 .50925 .35217 .52392 .31734 .53125 .278 .53125Z"/>
<path id="font_4_65" d="M.496 .04204V.51625H.433V.4272H.431C.425 .44121 .41649 .45455 .40549 .46722 .39449 .4799 .38199 .49107 .368 .50073 .354 .51041 .3385 .51791 .3215 .52324 .3045 .52858 .28634 .53125 .267 .53125 .22967 .53125 .1965 .52441 .1675 .51073 .13849 .49706 .11416 .47838 .0945 .4547 .07483 .43101 .05983 .40333 .0495 .37163 .03916 .33994 .034 .30642 .034 .27106 .034 .23436 .03833 .19984 .047 .16748 .05566 .13512 .0695 .10693 .0885 .08292 .1075 .0589 .13167 .04005 .161 .02637 .19033 .0127 .22567 .00586 .267 .00586 .305 .00586 .33817 .01552 .3665 .03485 .39483 .05419 .41633 .07986 .431 .11186H.433V.04187C.433-.02085 .42-.0689 .394-.10228 .368-.13566 .32566-.15234 .267-.15234 .24966-.15234 .23266-.15051 .21599-.14685 .19933-.14319 .18416-.13735 .17049-.12935 .15682-.12135 .14516-.11086 .1355-.09785 .12583-.08485 .11933-.06868 .116-.04935H.05299C.055-.07668 .0625-.10018 .0755-.11984 .0885-.13952 .10483-.15565 .1245-.16826 .14417-.18086 .16634-.19015 .19099-.19612 .21566-.20209 .241-.20508 .267-.20508 .309-.20508 .3445-.19941 .3735-.18806 .40251-.17673 .42601-.1604 .444-.13905 .46201-.11771 .47517-.0917 .48351-.06102 .49184-.03034 .496 .00401 .496 .04204M.267 .05859C.23767 .05859 .21234 .06444 .19099 .07613 .16966 .08782 .152 .1032 .138 .12224 .124 .14128 .11367 .16316 .10699 .18788 .10033 .2126 .097 .23799 .097 .26404 .097 .29077 .10016 .317 .10649 .34271 .11283 .36844 .123 .39132 .13699 .41136 .151 .43141 .16867 .44762 .19 .45998 .21133 .47234 .237 .47852 .267 .47852 .297 .47852 .32249 .47217 .34349 .45947 .3645 .44678 .38166 .43007 .39499 .40936 .40833 .38865 .41799 .3656 .424 .34021 .43 .31482 .433 .28943 .433 .26404 .433 .23799 .4295 .2126 .4225 .18788 .4155 .16316 .405 .14128 .39099 .12224 .37699 .1032 .35966 .08782 .33899 .07613 .31833 .06444 .29433 .05859 .267 .05859Z"/>
<path id="font_4_78" d="M.16 .51562V.6709H.097V.51562H.007V.46289H.097V.11006C.09633 .06609 .10432 .03593 .12099 .01961 .13766 .00328 .167-.00488 .209-.00488 .21834-.00488 .22767-.00456 .237-.00391 .24634-.00326 .25567-.00293 .265-.00293V.0498C.247 .04785 .229 .04688 .211 .04688 .18833 .04821 .17417 .05471 .1685 .06638 .16284 .07804 .16 .09421 .16 .11488V.46289H.265V.51562H.16Z"/>
<path id="font_4_64" d="M.259 .46289V.51562H.157V.56078C.157 .57483 .15733 .58788 .15799 .59991 .15866 .61196 .16116 .6225 .1655 .63153 .16983 .64056 .17666 .64776 .18599 .65311 .19533 .65846 .20866 .66113 .226 .66113 .23333 .66113 .24067 .66064 .248 .65967 .25534 .65869 .26334 .65755 .272 .65625V.7099C.262 .71122 .253 .71221 .245 .71288 .237 .71354 .22833 .71387 .21899 .71387 .19366 .71387 .17283 .71019 .15649 .70285 .14017 .69551 .12733 .68516 .118 .67181 .10866 .65847 .10232 .64245 .09898 .62375 .09566 .60506 .09399 .58471 .09399 .56268V.51562H.006V.46289H.09399V0H.157V.46289H.259Z"/>
<path id="font_3_83" d="M.06799 .71387V.55972H.134C.134 .53503 .12933 .51418 .12 .49716 .11067 .48015 .09333 .46731 .06799 .45863V.39258C.08866 .39524 .10783 .40141 .1255 .41109 .14317 .42077 .15834 .43295 .17101 .44763 .18367 .46231 .1935 .47932 .2005 .49867 .2075 .51802 .21067 .53871 .21001 .56073V.71387H.06799Z"/>
<path id="font_3_35" d="M.069 .71387V0H.216V.5009H.218L.39301 0H.51399L.689 .50591H.69099V0H.838V.71387H.617L.459 .22296H.457L.28999 .71387H.069Z"/>
<path id="font_3_25" d="M.545 .47363H.69701C.69234 .51496 .681 .55162 .66299 .5836 .645 .6156 .62217 .64241 .5945 .66405 .56683 .68569 .53549 .70217 .50049 .71349 .46549 .72481 .42833 .73047 .38901 .73047 .33434 .73047 .28517 .72081 .2415 .70151 .19784 .6822 .16101 .65556 .131 .6216 .101 .58764 .078 .54786 .062 .50224 .046 .45663 .03799 .40719 .03799 .35393 .03799 .30199 .046 .25355 .062 .2086 .078 .16366 .101 .12454 .131 .09125 .16101 .05795 .19784 .03181 .2415 .01283 .28517-.00614 .33434-.01562 .38901-.01562 .433-.01562 .47333-.00897 .50999 .00435 .54667 .01767 .57867 .03699 .606 .06229 .63334 .0876 .65533 .11825 .672 .15424 .68867 .19023 .69901 .23056 .703 .27522H.55099C.545 .22723 .5285 .18856 .5015 .15923 .4745 .1299 .437 .11523 .38901 .11523 .35367 .11523 .32366 .12206 .299 .13571 .27433 .14936 .25433 .16751 .239 .19014 .22367 .21278 .2125 .23825 .20551 .26654 .19851 .29484 .19501 .32397 .19501 .35394 .19501 .38523 .19851 .41553 .20551 .44482 .2125 .47412 .22367 .50025 .239 .52322 .25433 .54619 .27433 .5645 .299 .57816 .32366 .59181 .35367 .59863 .38901 .59863 .40834 .59863 .42683 .59546 .44449 .58913 .46216 .5828 .47799 .57397 .49199 .56264 .506 .55131 .51766 .53814 .52699 .52313 .53633 .50814 .54233 .49164 .545 .47363Z"/>
<path id="font_5_2" d="M.09033 0V.72266H.68994V0H.53955V.62354H.24072V0H.09033Z"/>
<path id="font_3_40" d="M.226 .3916V.5918H.39799C.434 .5918 .46099 .58399 .47899 .56839 .49699 .55279 .506 .52772 .506 .49319 .506 .45734 .49699 .43144 .47899 .4155 .46099 .39957 .434 .3916 .39799 .3916H.226M.069 .71387V0H.226V.2793H.383C.42233 .2793 .45067 .27062 .468 .25327 .48534 .23592 .49667 .20856 .502 .17119 .506 .14249 .509 .11246 .511 .08109 .51301 .04972 .51834 .02269 .52701 0H.68401C.67667 .01001 .67117 .02219 .6675 .03654 .66383 .0509 .66117 .06609 .6595 .08211 .65783 .09813 .65666 .11382 .65599 .12917 .65533 .14453 .65467 .15788 .65401 .16924 .65266 .18725 .65016 .20527 .6465 .2233 .64284 .24132 .637 .25784 .629 .27286 .621 .28788 .61067 .3009 .59799 .31192 .58533 .32294 .56933 .33112 .55 .33646V.33846C.59 .35443 .61883 .37772 .63649 .40834 .65416 .43896 .66299 .47524 .66299 .51718 .66299 .54446 .65816 .56992 .64848 .59355 .63882 .61718 .62482 .63799 .60649 .65596 .58816 .67393 .56616 .68808 .5405 .69839 .51483 .70871 .486 .71387 .45399 .71387H.069Z"/>
<path id="font_4_47" d="M.14 .375V.65625H.394C.446 .65625 .48466 .64357 .50999 .61821 .53533 .59286 .548 .55817 .548 .51413 .548 .49211 .54384 .47259 .53551 .45557 .52718 .43856 .51601 .42405 .502 .41203 .488 .40002 .47167 .39084 .453 .38451 .43434 .37817 .41467 .375 .394 .375H.14M.07201 .71387V0H.14V.31738H.39799C.43 .31872 .45516 .31337 .4735 .30136 .49184 .28935 .50584 .27349 .5155 .2538 .52517 .23412 .5315 .21176 .5345 .18672 .5375 .1617 .53967 .1365 .541 .11113 .54167 .1038 .54234 .09512 .543 .0851 .54367 .07509 .5445 .06491 .5455 .05457 .5465 .04422 .54816 .03421 .55049 .02452 .55283 .01485 .556 .00667 .56 0H.63499C.62766 .00867 .62183 .02084 .61749 .03651 .61316 .05219 .60999 .06887 .60799 .08655 .60599 .10423 .60466 .12173 .60399 .13907 .60333 .15641 .60267 .17109 .60201 .18311 .60067 .20445 .59784 .22429 .59351 .24263 .58917 .26098 .58217 .27716 .57249 .29117 .56283 .30518 .55033 .31668 .535 .32568 .51967 .33469 .50034 .34086 .47701 .34419V.34619C.52301 .35552 .55767 .37684 .58099 .41014 .60433 .44345 .616 .48274 .616 .52803 .616 .56 .61016 .58781 .5985 .61145 .58683 .6351 .57116 .65442 .5515 .6694 .53183 .68439 .50883 .69554 .4825 .70287 .45616 .7102 .42833 .71387 .399 .71387H.07201Z"/>
<path id="font_4_29" d="M.231 .10645V0H.315V.10645H.231M.054 .49379H.117C.11633 .51979 .11933 .54379 .12599 .56578 .13267 .58778 .14267 .60695 .15601 .62328 .16934 .63961 .18634 .65245 .207 .66177 .22767 .67111 .25134 .67578 .278 .67578 .29734 .67578 .31567 .67245 .33301 .66579 .35034 .65912 .36551 .64996 .37851 .63829 .39151 .62662 .40184 .61245 .4095 .59578 .41717 .57912 .42101 .56079 .42101 .54079 .42101 .51479 .41484 .49112 .4025 .46979 .39017 .44846 .37467 .42912 .356 .41179 .33467 .39245 .3165 .37512 .3015 .35979 .28649 .34446 .27449 .32846 .26549 .31178 .2565 .29512 .25 .27645 .246 .25578 .242 .23512 .24034 .20946 .241 .17879H.304C.30467 .20946 .306 .23296 .308 .24928 .31 .26562 .314 .27945 .31999 .29079 .32599 .30212 .33516 .31362 .34749 .32529 .35983 .33695 .37633 .35312 .397 .37378 .42233 .39779 .44316 .42279 .45949 .44879 .47582 .47479 .48399 .50646 .48399 .54379 .48399 .57312 .47866 .59912 .46799 .62178 .45733 .64445 .44266 .66377 .424 .67972 .40533 .69567 .38383 .70779 .3595 .71608 .33516 .72437 .309 .72852 .28099 .72852 .245 .72852 .213 .72287 .185 .71159 .157 .70032 .13317 .68453 .11349 .66423 .09383 .64394 .079 .61929 .069 .59029 .059 .56128 .054 .52912 .054 .49379Z"/>
<path id="font_4_31" d="M.14 .40039V.65625H.37401C.48134 .65625 .535 .61143 .535 .5218 .535 .50508 .53167 .48936 .52499 .47464 .51833 .45992 .50833 .44704 .495 .436 .48167 .42497 .46501 .41627 .44501 .40991 .42501 .40356 .40134 .40039 .37401 .40039H.14M.07201 .71387V0H.37401C.41267 0 .44584 .00349 .4735 .01048 .50116 .01748 .5245 .02647 .5435 .03746 .56251 .04845 .57767 .06126 .589 .07591 .60034 .09056 .609 .10537 .61501 .12035 .62101 .13533 .62501 .14998 .627 .16429 .629 .17861 .63 .19144 .63 .20276 .63 .24937 .61634 .28849 .589 .32011 .56167 .35174 .525 .37055 .479 .37654V.37854C.49767 .38255 .5145 .38956 .5295 .39957 .5445 .40958 .5575 .42175 .5685 .4361 .57949 .45044 .58799 .46645 .59399 .48413 .6 .50182 .603 .52001 .603 .5387 .603 .57206 .59666 .59992 .584 .62227 .57133 .64463 .5545 .66265 .53349 .67633 .5125 .69001 .48816 .69969 .46049 .70535 .43284 .71103 .40401 .71387 .37401 .71387H.07201M.14 .05762V.34277H.37399C.43466 .34277 .48116 .33127 .51349 .30826 .54583 .28525 .562 .25073 .562 .2047 .562 .17601 .557 .15216 .547 .13315 .537 .11415 .52333 .09897 .506 .08763 .48866 .07629 .46866 .06845 .446 .06412 .42333 .05978 .39933 .05762 .37399 .05762H.14Z"/>
</defs>
<g clip-path="url(#clip_1)">
<g clip-path="url(#clip_2)">
<path transform="matrix(1,0,0,1,-100,-73.8)" stroke-width="1" stroke-linecap="butt" stroke-miterlimit="4" stroke-linejoin="miter" fill="none" stroke="#000000" d="M250.504 79.83 483.787 133.854 346.21 273.413 112.927 219.39 250.504 79.83ZM250.504 79.83"/>
<path transform="matrix(1,0,0,1,-100,-73.8)" stroke-width="1" stroke-linecap="butt" stroke-miterlimit="4" stroke-linejoin="miter" fill="none" stroke="#000000" d="M269 199H398V299H269Z"/>
<path transform="matrix(1,0,0,1,-100,-73.8)" stroke-width=".5" stroke-linecap="butt" stroke-miterlimit="4" stroke-linejoin="miter" fill="none" stroke="#000000" d="M269.2 254.203 399.6 219.797"/>
<path transform="matrix(1,0,0,1,-100,-73.8)" stroke-width="1" stroke-linecap="butt" stroke-miterlimit="4" stroke-linejoin="miter" fill="none" stroke="#000000" d="M157 122 202 179.797V279.797L157 222V122ZM157 122"/>
<path transform="matrix(1,0,0,1,-100,-73.8)" stroke-width=".5" stroke-linecap="butt" stroke-miterlimit="4" stroke-linejoin="miter" fill="none" stroke="#000000" d="M156.4 174.203 202 239"/>
<path transform="matrix(1,0,0,1,-100,-73.8)" stroke-width=".5" stroke-linecap="butt" stroke-miterlimit="4" stroke-linejoin="miter" fill="none" stroke="#000000" d="M338 100.602 114 219"/>
<path transform="matrix(1,0,0,1,-100,-73.8)" stroke-width=".5" stroke-linecap="butt" stroke-dasharray="1,1" stroke-miterlimit="4" stroke-linejoin="miter" fill="none" stroke="#000000" d="M312.4 113.398 346 272.602"/>
<path transform="matrix(1,0,0,1,-100,-73.8)" stroke-width=".5" stroke-linecap="butt" stroke-dasharray="1,1" stroke-miterlimit="4" stroke-linejoin="miter" fill="none" stroke="#000000" d="M278 131.797 345.6 274.203"/>
<path transform="matrix(1,0,0,1,-100,-73.8)" stroke-width=".5" stroke-linecap="butt" stroke-dasharray="1,1" stroke-miterlimit="4" stroke-linejoin="miter" fill="none" stroke="#000000" d="M236.4 154.203 345.6 273.406"/>
<path transform="matrix(1,0,0,-1,-100,768.2)" d="M347.268 567.732C348.244 568.709 348.244 570.291 347.268 571.268 346.291 572.244 344.709 572.244 343.732 571.268 342.756 570.291 342.756 568.709 343.732 567.732 344.709 566.756 346.291 566.756 347.268 567.732"/>
<path transform="matrix(1,0,0,1,-100,-73.8)" stroke-width="1" stroke-linecap="butt" stroke-miterlimit="4" stroke-linejoin="miter" fill="none" stroke="#000000" d="M347.268 274.268C348.244 273.291 348.244 271.709 347.268 270.732 346.291 269.756 344.709 269.756 343.732 270.732 342.756 271.709 342.756 273.291 343.732 274.268 344.709 275.244 346.291 275.244 347.268 274.268"/>
<path transform="matrix(1,0,0,-1,-100,768.2)" d="M270.268 584.732C271.244 585.709 271.244 587.291 270.268 588.268 269.291 589.244 267.709 589.244 266.732 588.268 265.756 587.291 265.756 585.709 266.732 584.732 267.709 583.756 269.291 583.756 270.268 584.732"/>
<path transform="matrix(1,0,0,1,-100,-73.8)" stroke-width="1" stroke-linecap="butt" stroke-miterlimit="4" stroke-linejoin="miter" fill="none" stroke="#000000" d="M270.268 257.268C271.244 256.291 271.244 254.709 270.268 253.732 269.291 252.756 267.709 252.756 266.732 253.732 265.756 254.709 265.756 256.291 266.732 257.268 267.709 258.244 269.291 258.244 270.268 257.268"/>
<path transform="matrix(1,0,0,-1,-100,768.2)" d="M204.268 599.732C205.244 600.709 205.244 602.291 204.268 603.268 203.292 604.244 201.708 604.244 200.732 603.268 199.756 602.291 199.756 600.709 200.732 599.732 201.708 598.756 203.292 598.756 204.268 599.732"/>
<path transform="matrix(1,0,0,1,-100,-73.8)" stroke-width="1" stroke-linecap="butt" stroke-miterlimit="4" stroke-linejoin="miter" fill="none" stroke="#000000" d="M204.268 242.268C205.244 241.291 205.244 239.709 204.268 238.732 203.292 237.756 201.708 237.756 200.732 238.732 199.756 239.709 199.756 241.291 200.732 242.268 201.708 243.244 203.292 243.244 204.268 242.268"/>
<path transform="matrix(1,0,0,-1,-100,768.2)" d="M115.268 620.732C116.244 621.709 116.244 623.291 115.268 624.268 114.291 625.244 112.709 625.244 111.732 624.268 110.756 623.291 110.756 621.709 111.732 620.732 112.709 619.756 114.291 619.756 115.268 620.732"/>
<path transform="matrix(1,0,0,1,-100,-73.8)" stroke-width="1" stroke-linecap="butt" stroke-miterlimit="4" stroke-linejoin="miter" fill="none" stroke="#000000" d="M115.268 221.268C116.244 220.291 116.244 218.709 115.268 217.732 114.291 216.756 112.709 216.756 111.732 217.732 110.756 218.709 110.756 220.291 111.732 221.268 112.709 222.244 114.291 222.244 115.268 221.268"/>
<path transform="matrix(1,0,0,-1,-100,768.2)" d="M170.268 649.732C171.244 650.709 171.244 652.291 170.268 653.268 169.292 654.244 167.708 654.244 166.732 653.268 165.756 652.291 165.756 650.709 166.732 649.732 167.708 648.756 169.292 648.756 170.268 649.732"/>
<path transform="matrix(1,0,0,1,-100,-73.8)" stroke-width="1" stroke-linecap="butt" stroke-miterlimit="4" stroke-linejoin="miter" fill="none" stroke="#000000" d="M170.268 192.268C171.244 191.291 171.244 189.709 170.268 188.732 169.292 187.756 167.708 187.756 166.732 188.732 165.756 189.709 165.756 191.291 166.732 192.268 167.708 193.244 169.292 193.244 170.268 192.268"/>
<path transform="matrix(1,0,0,-1,-100,768.2)" d="M238.268 685.732C239.244 686.709 239.244 688.291 238.268 689.268 237.292 690.244 235.708 690.244 234.732 689.268 233.756 688.291 233.756 686.709 234.732 685.732 235.708 684.756 237.292 684.756 238.268 685.732"/>
<path transform="matrix(1,0,0,1,-100,-73.8)" stroke-width="1" stroke-linecap="butt" stroke-miterlimit="4" stroke-linejoin="miter" fill="none" stroke="#000000" d="M238.268 156.268C239.244 155.291 239.244 153.709 238.268 152.732 237.292 151.756 235.708 151.756 234.732 152.732 233.756 153.709 233.756 155.291 234.732 156.268 235.708 157.244 237.292 157.244 238.268 156.268"/>
<path transform="matrix(1,0,0,-1,-100,768.2)" d="M280.268 707.732C281.244 708.709 281.244 710.291 280.268 711.268 279.291 712.244 277.709 712.244 276.732 711.268 275.756 710.291 275.756 708.709 276.732 707.732 277.709 706.756 279.291 706.756 280.268 707.732"/>
<path transform="matrix(1,0,0,1,-100,-73.8)" stroke-width="1" stroke-linecap="butt" stroke-miterlimit="4" stroke-linejoin="miter" fill="none" stroke="#000000" d="M280.268 134.268C281.244 133.291 281.244 131.709 280.268 130.732 279.291 129.756 277.709 129.756 276.732 130.732 275.756 131.709 275.756 133.291 276.732 134.268 277.709 135.244 279.291 135.244 280.268 134.268"/>
<path transform="matrix(1,0,0,-1,-100,768.2)" d="M314.268 726.732C315.244 727.709 315.244 729.291 314.268 730.268 313.291 731.244 311.709 731.244 310.732 730.268 309.756 729.291 309.756 727.709 310.732 726.732 311.709 725.756 313.291 725.756 314.268 726.732"/>
<path transform="matrix(1,0,0,1,-100,-73.8)" stroke-width="1" stroke-linecap="butt" stroke-miterlimit="4" stroke-linejoin="miter" fill="none" stroke="#000000" d="M314.268 115.268C315.244 114.291 315.244 112.709 314.268 111.732 313.291 110.756 311.709 110.756 310.732 111.732 309.756 112.709 309.756 114.291 310.732 115.268 311.709 116.244 313.291 116.244 314.268 115.268"/>
<path transform="matrix(1,0,0,-1,-100,768.2)" d="M317.268 598.732C318.244 599.709 318.244 601.291 317.268 602.268 316.291 603.244 314.709 603.244 313.732 602.268 312.756 601.291 312.756 599.709 313.732 598.732 314.709 597.756 316.291 597.756 317.268 598.732"/>
<path transform="matrix(1,0,0,1,-100,-73.8)" stroke-width="1" stroke-linecap="butt" stroke-miterlimit="4" stroke-linejoin="miter" fill="none" stroke="#000000" d="M317.268 243.268C318.244 242.291 318.244 240.709 317.268 239.732 316.291 238.756 314.709 238.756 313.732 239.732 312.756 240.709 312.756 242.291 313.732 243.268 314.709 244.244 316.291 244.244 317.268 243.268"/>
<path transform="matrix(1,0,0,-1,-100,768.2)" d="M330.268 601.732C331.244 602.709 331.244 604.291 330.268 605.268 329.291 606.244 327.709 606.244 326.732 605.268 325.756 604.291 325.756 602.709 326.732 601.732 327.709 600.756 329.291 600.756 330.268 601.732"/>
<path transform="matrix(1,0,0,1,-100,-73.8)" stroke-width="1" stroke-linecap="butt" stroke-miterlimit="4" stroke-linejoin="miter" fill="none" stroke="#000000" d="M330.268 240.268C331.244 239.291 331.244 237.709 330.268 236.732 329.291 235.756 327.709 235.756 326.732 236.732 325.756 237.709 325.756 239.291 326.732 240.268 327.709 241.244 329.291 241.244 330.268 240.268"/>
<path transform="matrix(1,0,0,-1,-100,768.2)" d="M340.268 603.732C341.244 604.709 341.244 606.291 340.268 607.268 339.291 608.244 337.709 608.244 336.732 607.268 335.756 606.291 335.756 604.709 336.732 603.732 337.709 602.756 339.291 602.756 340.268 603.732"/>
<path transform="matrix(1,0,0,1,-100,-73.8)" stroke-width="1" stroke-linecap="butt" stroke-miterlimit="4" stroke-linejoin="miter" fill="none" stroke="#000000" d="M340.268 238.268C341.244 237.291 341.244 235.709 340.268 234.732 339.291 233.756 337.709 233.756 336.732 234.732 335.756 235.709 335.756 237.291 336.732 238.268 337.709 239.244 339.291 239.244 340.268 238.268"/>
<use data-text="M" xlink:href="#font_3_35" transform="matrix(9,0,0,-9,168,52.2)"/>
<use data-text="?" xlink:href="#font_4_29" transform="matrix(9,0,0,-9,176.163,52.2)"/>
<use data-text="m" xlink:href="#font_3_63" transform="matrix(9,0,0,-9,223,156.2)"/>
<use data-text="&#x2019;" xlink:href="#font_3_83" transform="matrix(9,0,0,-9,231.154,156.2)"/>
<use data-text="?" xlink:href="#font_4_29" transform="matrix(9,0,0,-9,233.656,156.2)"/>
<use data-text="C" xlink:href="#font_3_25" transform="matrix(9,0,0,-9,6,160.2)"/>
<use data-text="C" xlink:href="#font_3_25" transform="matrix(9,0,0,-9,253,208.2)"/>
<use data-text="&#x2019;" xlink:href="#font_3_83" transform="matrix(9,0,0,-9,259.669,208.2)"/>
<use data-text="l" xlink:href="#font_3_62" transform="matrix(9,0,0,-9,269,148.2)"/>
<use data-text="&#x2019;" xlink:href="#font_3_83" transform="matrix(9,0,0,-9,271.322,148.2)"/>
<use data-text="l" xlink:href="#font_3_62" transform="matrix(9,0,0,-9,89,137.2)"/>
<use data-text="m" xlink:href="#font_3_63" transform="matrix(9,0,0,-9,66,108.2)"/>
<use data-text="e" xlink:href="#font_3_55" transform="matrix(9,0,0,-9,172,174.2)"/>
<use data-text="&#x2019;" xlink:href="#font_3_83" transform="matrix(9,0,0,-9,177.166,174.2)"/>
<use data-text="e" xlink:href="#font_3_55" transform="matrix(9,0,0,-9,107,160.2)"/>
<use data-text="R" xlink:href="#font_3_40" transform="matrix(9,0,0,-9,172,216.2)"/>
<use data-text="&#x2019;" xlink:href="#font_3_83" transform="matrix(9,0,0,-9,178.498,216.2)"/>
<use data-text="R" xlink:href="#font_3_40" transform="matrix(9,0,0,-9,59,70.2)"/>
<use data-text="&#x03a0;" xlink:href="#font_5_2" transform="matrix(9,0,0,-9,341.765,70.2)"/>
<use data-text="e" xlink:href="#font_3_55" transform="matrix(6,0,0,-6,348.791,70.851)"/>
<use data-text="B" xlink:href="#font_4_31" transform="matrix(8.873,1.505,1.505,-8.873,112.975,186.495)"/>
<use data-text="a" xlink:href="#font_4_59" transform="matrix(8.873,1.505,1.505,-8.873,118.894,187.499)"/>
<use data-text="s" xlink:href="#font_4_77" transform="matrix(8.873,1.505,1.505,-8.873,123.499,188.281)"/>
<use data-text="e" xlink:href="#font_4_63" transform="matrix(8.873,1.505,1.505,-8.873,127.767,189.005)"/>
<use data-text="l" xlink:href="#font_4_70" transform="matrix(8.873,1.505,1.505,-8.873,132.372,189.786)"/>
<use data-text="i" xlink:href="#font_4_67" transform="matrix(8.873,1.505,1.505,-8.873,134.014,190.064)"/>
<use data-text="n" xlink:href="#font_4_72" transform="matrix(8.873,1.505,1.505,-8.873,135.655,190.343)"/>
<use data-text="e" xlink:href="#font_4_63" transform="matrix(8.873,1.505,1.505,-8.873,140.42,191.151)"/>
<use data-text="R" xlink:href="#font_4_47" transform="matrix(7.951,-4.216,-4.216,-7.951,102.731,90.196)"/>
<use data-text="a" xlink:href="#font_4_59" transform="matrix(7.951,-4.216,-4.216,-7.951,108.034,87.384)"/>
<use data-text="y" xlink:href="#font_4_83" transform="matrix(7.951,-4.216,-4.216,-7.951,112.161,85.196)"/>
<use data-text=" " xlink:href="#font_4_1" transform="matrix(7.951,-4.216,-4.216,-7.951,115.843,83.244)"/>
<use data-text="o" xlink:href="#font_4_73" transform="matrix(7.951,-4.216,-4.216,-7.951,118.053,82.072)"/>
<use data-text="f" xlink:href="#font_4_64" transform="matrix(7.951,-4.216,-4.216,-7.951,122.474,79.728)"/>
<use data-text=" " xlink:href="#font_4_1" transform="matrix(7.951,-4.216,-4.216,-7.951,124.533,78.636)"/>
<use data-text="l" xlink:href="#font_4_70" transform="matrix(7.951,-4.216,-4.216,-7.951,126.744,77.464)"/>
<use data-text="i" xlink:href="#font_4_67" transform="matrix(7.951,-4.216,-4.216,-7.951,128.215,76.684)"/>
<use data-text="g" xlink:href="#font_4_65" transform="matrix(7.951,-4.216,-4.216,-7.951,129.686,75.904)"/>
<use data-text="h" xlink:href="#font_4_66" transform="matrix(7.951,-4.216,-4.216,-7.951,134.107,73.56)"/>
<use data-text="t" xlink:href="#font_4_78" transform="matrix(7.951,-4.216,-4.216,-7.951,138.377,71.296)"/>
</g>
</g>
</svg>
